PathFileType	4	(X/Y/Z)	s11c0401.trc
DataRate	CameraRate	NumFrames	NumMarkers	Units	OrigDataRate	OrigDataStartFrame	OrigNumFrames
200	200	4	48	mm	200	1250	2000
Frame#	Time	racr			lacr			c7			jug			rlel			rdr			llel			ldr			s2			lic			ric			lasi			rasi			rpsi			lpsi			rgt			lgt			rth1			rth2			rth3			rth4			rlfc			rmfc			rsh1			rsh2			rsh3			rsh4			rlmal			rcal			rtoe			rmt5			lth1			lth2			lth4			lth3			llfc			lmfc			llmal			lcal			lmt5			lsh1			lsh2			lsh3			lsh4			ltoe			SBIKE			LBIKE			RBIKE			
		X1	Y1	Z1	X2	Y2	Z2	X3	Y3	Z3	X4	Y4	Z4	X5	Y5	Z5	X6	Y6	Z6	X7	Y7	Z7	X8	Y8	Z8	X9	Y9	Z9	X10	Y10	Z10	X11	Y11	Z11	X12	Y12	Z12	X13	Y13	Z13	X14	Y14	Z14	X15	Y15	Z15	X16	Y16	Z16	X17	Y17	Z17	X18	Y18	Z18	X19	Y19	Z19	X20	Y20	Z20	X21	Y21	Z21	X22	Y22	Z22	X23	Y23	Z23	X24	Y24	Z24	X25	Y25	Z25	X26	Y26	Z26	X27	Y27	Z27	X28	Y28	Z28	X29	Y29	Z29	X30	Y30	Z30	X31	Y31	Z31	X32	Y32	Z32	X33	Y33	Z33	X34	Y34	Z34	X35	Y35	Z35	X36	Y36	Z36	X37	Y37	Z37	X38	Y38	Z38	X39	Y39	Z39	X40	Y40	Z40	X41	Y41	Z41	X42	Y42	Z42	X43	Y43	Z43	X44	Y44	Z44	X45	Y45	Z45	X46	Y46	Z46	X47	Y47	Z47	X48	Y48	Z48	
1250	6.2500	787.689859	1333.599333	-63.358805	738.137060	1339.036739	-395.252002	748.894413	1433.127291	-223.139280	711.835279	1254.559170	-234.631532	600.519221	1129.187508	58.098328	758.222142	961.859190	-67.044945	539.729289	1160.990076	-568.838010	745.822307	947.534805	-484.153574	133.463844	1322.936057	-228.074065	343.314999	1295.232739	-436.108165	345.369177	1275.788900	-31.431991	353.355722	1210.454555	-407.869588	349.388434	1207.975971	-76.258830	196.774667	1387.520518	-177.031297	189.182713	1380.724696	-268.730418	271.822221	1149.180138	-25.296167	230.367390	1179.919007	-445.703527	352.750640	1026.564653	-31.500825	419.545452	970.942269	-50.264127	447.949429	889.762263	-69.300040	448.084495	992.102427	-60.177905	502.741597	798.891425	-92.447169	490.508300	779.271882	-216.309907	440.547099	646.841333	-76.477622	429.326068	561.032700	-94.927324	379.813287	489.388715	-93.580946	451.770387	555.982808	-127.728216	316.590992	369.497280	-102.076258	245.167492	362.038323	-148.344071	522.301969	282.396958	-151.193140	450.760122	267.376619	-80.034301	320.601355	1058.392312	-476.571528	383.348377	1000.020251	-478.077300	414.779084	1017.695064	-470.160274	409.737378	914.154257	-482.914741	461.591813	784.914520	-466.778144	483.566314	768.278755	-341.169248	129.351660	521.844750	-425.445101	77.082052	549.663771	-384.790412	119.150812	346.419680	-451.846753	363.147219	705.112397	-479.895394	315.791222	636.051575	-460.651419	237.268126	596.787196	-451.814851	339.447985	614.579825	-439.266157	183.740546	270.664876	-385.390262	-214.429050	959.288465	-254.972573	-17.738460	81.433400	-460.858006	-17.727718	81.005699	-62.021887	
1251	6.2550	788.588027	1334.368578	-65.268721	737.653810	1340.771545	-397.505207	748.536981	1434.421094	-225.110888	711.786958	1254.994561	-235.284822	601.818918	1130.696751	58.190469	758.488731	961.889024	-66.302736	539.780296	1160.278204	-569.063424	745.938938	947.660460	-484.242839	132.904103	1321.240175	-227.147543	343.187218	1294.903894	-435.020182	346.001594	1272.276884	-31.650134	353.227630	1210.093521	-406.805026	350.216169	1204.308748	-76.187381	196.616170	1385.264041	-175.507970	189.088304	1379.101860	-267.993883	269.661190	1145.015558	-25.609440	231.697642	1180.614680	-446.179891	347.707820	1020.646147	-31.006060	413.229236	963.464953	-49.642819	439.564855	881.887615	-69.083712	442.140779	983.930137	-58.801923	492.187409	789.960927	-91.129887	480.148744	770.299646	-215.261201	430.922394	638.277426	-75.851421	421.253997	552.312556	-93.975716	372.698091	479.919923	-92.931497	444.320705	547.131189	-126.405108	312.081638	358.260244	-101.908294	240.952442	350.832952	-148.357497	518.208623	272.888827	-150.807157	446.967541	256.913486	-79.957621	323.305011	1060.285075	-477.808233	387.121055	1003.105935	-479.266168	418.233551	1021.416899	-471.252850	415.063190	917.697991	-483.939397	470.238656	789.928535	-467.682942	493.248848	774.116002	-341.330950	135.567242	531.196202	-425.509642	83.750307	559.908764	-384.757301	122.958309	356.047091	-451.778778	371.237238	711.287372	-480.305517	323.181145	642.698787	-460.873187	244.253787	604.357180	-451.872183	346.629115	620.970980	-439.678280	186.349489	279.251516	-385.457868	-214.390820	959.244041	-255.257983	-17.745213	81.408608	-460.829503	-17.727659	80.988856	-62.012432	
1252	6.2600	789.490017	1335.251865	-67.035023	737.184665	1342.530900	-399.720666	748.141347	1435.674008	-226.945530	712.249484	1255.637060	-236.696550	603.044636	1132.195974	58.246099	758.524052	961.764950	-65.774478	539.898754	1159.413457	-569.165326	746.313592	947.936509	-485.212605	132.727709	1319.187802	-226.809968	343.132311	1294.275568	-434.011598	346.670201	1268.645556	-31.881863	353.175293	1209.624840	-405.599624	351.332428	1200.702880	-76.094833	196.406737	1382.915335	-173.935448	188.829846	1377.220171	-266.868393	267.373742	1140.594010	-25.925343	232.890157	1181.219969	-446.772044	342.479633	1014.770020	-30.607049	406.729399	955.957129	-49.086925	430.987842	873.800092	-68.828898	436.264564	975.777233	-58.093080	481.197863	781.302979	-90.703082	471.561467	760.878404	-214.085425	421.213016	629.928464	-75.332765	412.893957	543.682601	-93.097475	365.333207	470.749295	-92.500636	436.516155	538.792422	-125.173931	307.157641	347.406926	-101.828121	236.165568	339.882910	-148.467426	513.756242	263.257440	-150.631643	442.475061	246.728154	-79.842808	325.667879	1061.966740	-479.123275	390.596917	1005.982560	-480.306410	421.359628	1024.864697	-471.969186	420.072292	921.096493	-484.972251	478.593776	795.007819	-468.598137	501.793378	779.739569	-341.949144	141.942283	540.341951	-425.578094	90.666193	569.736331	-384.759491	127.192487	365.536295	-451.776893	379.219984	717.497584	-480.727501	330.548366	649.393331	-461.171302	251.226605	611.913529	-451.969981	353.873267	627.442545	-439.930464	189.740210	287.983403	-385.360814	-214.355923	959.276526	-254.915048	-17.750951	81.347018	-460.843580	-17.742492	80.958426	-61.977615	
1253	6.2650	790.241348	1336.320380	-68.890032	736.719705	1344.314023	-401.912071	747.592451	1437.124189	-228.881519	712.655265	1256.240785	-237.960420	604.285103	1133.770923	58.381012	758.412135	961.484450	-65.447710	540.003079	1158.632939	-569.199375	747.002182	948.281386	-486.967204	132.421019	1316.823855	-226.350961	343.139475	1293.771088	-432.950708	347.295116	1265.033806	-32.032905	353.222080	1209.077844	-404.480706	352.555452	1197.122154	-75.901957	196.128656	1380.283096	-172.420353	188.560704	1375.275719	-265.815965	264.947372	1136.009380	-26.409607	233.916827	1181.566584	-447.433944	337.106333	1008.955932	-30.132955	399.978704	948.498337	-48.575785	422.275752	865.954919	-68.444444	430.338723	967.443329	-57.308153	470.253706	772.609332	-90.460969	460.448013	753.322145	-213.013584	411.265062	621.781485	-74.961635	404.201089	535.398033	-92.493468	357.416003	461.861391	-92.092511	428.430915	530.738385	-124.044334	301.638572	337.070539	-101.758164	230.743843	329.600414	-148.584678	508.677427	253.738902	-150.292277	437.435729	236.919389	-79.653165	327.901046	1063.415887	-480.261649	393.820293	1008.618989	-481.064730	424.137657	1027.947090	-472.139862	424.807810	924.272062	-486.064979	486.628000	800.190944	-469.406305	510.890860	785.434486	-342.364134	148.320436	549.453906	-425.573460	97.184326	579.159854	-384.725729	132.289549	374.651776	-451.691468	387.055075	723.793667	-481.150677	337.853933	656.108891	-461.497643	258.247596	619.204922	-452.102529	360.992688	633.967290	-440.245403	193.961734	296.652545	-385.484039	-214.334195	959.256682	-254.934089	-17.761138	81.260363	-460.820423	-17.748425	80.934953	-61.983223	
